<svg xmlns="http://www.w3.org/2000/svg" width="34" height="34" viewBox="0 0 24 24" ><defs><linearGradient id="gradiente1" x1="0%" y1="0%" x2="100%" y2="0%"><stop offset="0%" stop-color="rgb(0, 117, 155)" /><stop offset="100%" stop-color="rgb(0, 32, 155)" /></linearGradient><linearGradient id="gradiente2" x1="0%" y1="0%" x2="100%" y2="0%"><stop offset="0%" stop-color="rgb(0, 217, 255)" /><stop offset="100%" stop-color="rgb(0, 132, 255)" /></linearGradient></defs><path d="M13 6c2.507.423 4.577 2.493 5 5h4c-.471-4.717-4.283-8.529-9-9v4z" fill="url(#gradiente2)"></path><path d="M18 13c-.478 2.833-2.982 4.949-5.949 4.949-3.309 0-6-2.691-6-6C6.051 8.982 8.167 6.478 11 6V2c-5.046.504-8.949 4.773-8.949 9.949 0 5.514 4.486 10 10 10 5.176 0 9.445-3.903 9.949-8.949h-4z" fill="url(#gradiente1)"></path></svg>