<svg xmlns="http://www.w3.org/2000/svg" width="34" height="34" viewBox="0 0 24 24" ><defs><linearGradient id="gradiente1" x1="0%" y1="0%" x2="100%" y2="0%"><stop offset="0%" stop-color="rgb(0, 217, 255)" /><stop offset="100%" stop-color="rgb(0, 132, 255)" /></linearGradient></defs><path d="M6 21H3a1 1 0 0 1-1-1v-8a1 1 0 0 1 1-1h3a1 1 0 0 1 1 1v8a1 1 0 0 1-1 1zm7 0h-3a1 1 0 0 1-1-1V3a1 1 0 0 1 1-1h3a1 1 0 0 1 1 1v17a1 1 0 0 1-1 1zm7 0h-3a1 1 0 0 1-1-1V9a1 1 0 0 1 1-1h3a1 1 0 0 1 1 1v11a1 1 0 0 1-1 1z" fill="url(#gradiente1)"></path></svg>
